<?xml version="1.0" encoding="UTF-8"?>
<svg width="512" height="512" viewBox="0 0 512 512" fill="none" xmlns="http://www.w3.org/2000/svg">
  <defs>
    <linearGradient id="gradient1" x1="0%" y1="0%" x2="100%" y2="100%">
      <stop offset="0%" stop-color="#64B5F6" />
      <stop offset="100%" stop-color="#00B8D4" />
    </linearGradient>
    <linearGradient id="gradient2" x1="0%" y1="0%" x2="100%" y2="100%">
      <stop offset="0%" stop-color="#1E88E5" />
      <stop offset="100%" stop-color="#0D47A1" />
    </linearGradient>
    <filter id="shadow" x="-20%" y="-20%" width="140%" height="140%">
      <feDropShadow dx="0" dy="4" stdDeviation="8" flood-color="#0D47A1" flood-opacity="0.5"/>
    </filter>
  </defs>
  
  <!-- Background Circle -->
  <circle cx="256" cy="256" r="240" fill="url(#gradient2)" opacity="0.1" />
  
  <!-- Wave Pattern -->
  <path d="M72 320C120 290 160 340 208 310C256 280 304 320 352 290C400 260 440 310 488 280" 
        stroke="url(#gradient1)" stroke-width="12" stroke-linecap="round" filter="url(#shadow)"/>
        
  <path d="M72 270C120 240 160 290 208 260C256 230 304 270 352 240C400 210 440 260 488 230" 
        stroke="url(#gradient1)" stroke-width="8" stroke-linecap="round" filter="url(#shadow)"/>
        
  <path d="M72 220C120 190 160 240 208 210C256 180 304 220 352 190C400 160 440 210 488 180" 
        stroke="url(#gradient1)" stroke-width="6" stroke-linecap="round" filter="url(#shadow)"/>
  
  <!-- Floating Elements -->
  <circle cx="180" cy="150" r="24" fill="#29B6F6" opacity="0.8" />
  <circle cx="320" cy="200" r="16" fill="#00E5FF" opacity="0.6" />
  <circle cx="250" cy="120" r="12" fill="#1DE9B6" opacity="0.7" />
  
  <!-- Central Icon -->
  <circle cx="256" cy="256" r="80" fill="url(#gradient1)" filter="url(#shadow)" />
  <path d="M256 196C229.5 196 208 217.5 208 244C208 261.4 218.4 276.5 233 284.9L256 316L279 284.9C293.6 276.5 304 261.4 304 244C304 217.5 282.5 196 256 196Z" 
        fill="white" filter="url(#shadow)" />
</svg>
